<?xml version="1.0" standalone="no"?>
<!DOCTYPE svg PUBLIC "-//W3C//DTD SVG 20010904//EN"
 "http://www.w3.org/TR/2001/REC-SVG-20010904/DTD/svg10.dtd">
<svg version="1.0" xmlns="http://www.w3.org/2000/svg"
 width="70.000000pt" height="70.000000pt" viewBox="0 0 70.000000 70.000000"
 preserveAspectRatio="xMidYMid meet">
<metadata>
Created by potrace 1.14, written by Peter Selinger 2001-2017
</metadata>
<g transform="translate(0.000000,70.000000) scale(0.100000,-0.100000)"
fill="#000000" stroke="none">
<path d="M190 350 c0 -153 2 -180 15 -180 12 0 15 19 15 110 0 90 3 110 15
110 28 0 83 33 94 57 22 48 -18 83 -93 83 l-46 0 0 -180z m84 150 c38 -14 35
-54 -3 -70 -38 -15 -51 -7 -51 34 0 48 9 54 54 36z"/>
<path d="M240 470 c0 -20 25 -38 36 -27 8 7 -15 47 -26 47 -6 0 -10 -9 -10
-20z"/>
<path d="M355 425 c-16 -59 -35 -87 -35 -51 0 8 -7 16 -15 20 -9 3 -15 0 -15
-8 0 -25 22 -76 33 -77 7 -1 -5 -5 -26 -8 -21 -3 -38 -9 -37 -13 0 -5 0 -33 0
-63 0 -41 4 -55 14 -55 11 0 16 15 18 51 l3 52 58 2 c67 2 80 -10 72 -69 -3
-30 -1 -36 15 -36 15 0 19 9 22 61 1 33 0 63 -4 67 -4 4 6 48 22 97 15 50 26
92 24 94 -10 11 -33 -28 -49 -84 l-18 -60 -22 69 c-12 39 -27 72 -32 73 -6 2
-19 -26 -28 -62z m46 -60 c6 -25 15 -45 20 -45 5 0 9 -4 9 -10 0 -5 -18 -10
-40 -10 -22 0 -40 5 -40 11 0 25 23 99 31 99 5 0 14 -20 20 -45z"/>
</g>
</svg>
